<?xml version="1.0" standalone="no"?>
<!DOCTYPE svg PUBLIC "-//W3C//DTD SVG 20010904//EN"
 "http://www.w3.org/TR/2001/REC-SVG-20010904/DTD/svg10.dtd">
<svg version="1.0" xmlns="http://www.w3.org/2000/svg"
 width="500.000000pt" height="500.000000pt" viewBox="0 0 500.000000 500.000000"
 preserveAspectRatio="xMidYMid meet">
<metadata>
Created by potrace 1.11, written by Peter Selinger 2001-2013
</metadata>
<g transform="translate(0.000000,500.000000) scale(0.100000,-0.100000)"
fill="#000000" stroke="none">
<path d="M2329 4966 c-2 -2 -35 -7 -74 -10 -105 -11 -126 -14 -235 -36 -852
-174 -1508 -799 -1744 -1663 -38 -139 -63 -249 -72 -322 -3 -27 -8 -59 -10
-70 -29 -150 -25 -640 7 -830 6 -33 12 -69 14 -80 3 -20 15 -85 20 -115 25
-127 98 -352 159 -485 287 -630 781 -1047 1450 -1225 61 -16 129 -32 151 -35
22 -4 47 -8 55 -10 8 -3 33 -7 55 -10 22 -3 49 -7 60 -10 95 -20 504 -27 670
-11 50 4 92 9 95 11 3 2 30 6 60 10 198 24 487 118 704 227 508 258 902 739
1044 1279 l10 36 -615 0 c-554 0 -615 -2 -620 -16 -14 -43 -101 -203 -142
-261 -161 -228 -370 -346 -666 -375 -80 -8 -236 -9 -280 -1 -16 2 -51 7 -76
10 -140 18 -278 70 -404 151 -261 169 -423 485 -460 900 -4 39 -8 87 -10 107
l-4 38 1678 0 1678 0 -2 203 c-2 111 -6 235 -9 275 -12 126 -16 166 -21 192
-2 14 -7 48 -11 75 -17 144 -72 369 -131 539 -303 861 -940 1383 -1833 1501
-52 7 -485 17 -491 11z m251 -917 c41 -1 93 -6 115 -10 22 -5 65 -14 95 -20
79 -17 245 -98 315 -154 223 -178 358 -452 410 -827 l6 -48 -1026 0 -1025 0 4
23 c3 12 13 63 21 112 32 180 95 341 190 485 168 253 432 413 725 436 41 4 77
8 79 10 2 2 7 2 10 -1 4 -2 41 -5 81 -6z"/>
</g>
</svg>
